PathFileType	4	(X/Y/Z)	 s09c0402.trc
DataRate	CameraRate	NumFrames	NumMarkers	Units	OrigDataRate	OrigDataStartFrame	OrigNumFrames
200	200	5	50	mm	200	1001	2000
Frame#	Time	racr			lacr			c7			jug			rlel			rdr			llel			ldr			s2			lic			ric			lasi			rasi			rpsi			lpsi			rgt			lgt			rth1			rth2			rth3			rth4			rlfc			rmfc			rsh1			rsh2			rsh3			rsh4			rlmal			rmmal			rcal			rtoe			rmt5			lth1			lth2			lth4			lth3			llfc			lmfc			llmal			lmmal			lcal			lmt5			lsh1			lsh2			lsh3			lsh4			ltoe			SBIKE			LBIKE			RBIKE			
		X1	Y1	Z1	X2	Y2	Z2	X3	Y3	Z3	X4	Y4	Z4	X5	Y5	Z5	X6	Y6	Z6	X7	Y7	Z7	X8	Y8	Z8	X9	Y9	Z9	X10	Y10	Z10	X11	Y11	Z11	X12	Y12	Z12	X13	Y13	Z13	X14	Y14	Z14	X15	Y15	Z15	X16	Y16	Z16	X17	Y17	Z17	X18	Y18	Z18	X19	Y19	Z19	X20	Y20	Z20	X21	Y21	Z21	X22	Y22	Z22	X23	Y23	Z23	X24	Y24	Z24	X25	Y25	Z25	X26	Y26	Z26	X27	Y27	Z27	X28	Y28	Z28	X29	Y29	Z29	X30	Y30	Z30	X31	Y31	Z31	X32	Y32	Z32	X33	Y33	Z33	X34	Y34	Z34	X35	Y35	Z35	X36	Y36	Z36	X37	Y37	Z37	X38	Y38	Z38	X39	Y39	Z39	X40	Y40	Z40	X41	Y41	Z41	X42	Y42	Z42	X43	Y43	Z43	X44	Y44	Z44	X45	Y45	Z45	X46	Y46	Z46	X47	Y47	Z47	X48	Y48	Z48	X49	Y49	Z49	X50	Y50	Z50	
1001	5.0050	699.817394	1288.214330	-32.067685	722.862080	1278.797446	-416.944667	725.486169	1372.390602	-225.114427	727.289547	1238.257391	-222.706906	542.913204	1083.418020	38.554361	690.366692	909.149788	-38.488552	544.758141	1095.409464	-536.451936	677.812523	903.508701	-458.458267	264.972437	1161.661788	-290.264125	428.054112	1108.418919	-396.753871	378.189558	1166.279199	-112.199023	445.318631	1051.282766	-352.738032	411.513745	1103.172509	-117.576916	287.136414	1197.851582	-228.453796	311.142944	1182.027846	-338.225214	335.840766	1041.499763	-58.289458	355.011148	981.141636	-432.367429	449.848176	951.148694	-58.677968	530.556481	915.400892	-65.898775	576.986351	842.000200	-64.395820	549.506858	936.394621	-89.152283	622.104729	748.876348	-95.246770	602.435832	736.719317	-196.029405	523.670987	717.399745	-69.858587	454.994299	661.767708	-84.756609	368.543182	648.278267	-83.646308	468.311195	640.011049	-114.395232	276.869966	602.935995	-86.051056	284.623291	611.732831	-162.074771	191.330446	628.584400	-122.970192	390.161379	453.438949	-129.323284	317.727921	493.054276	-63.388964	365.369698	852.576000	-423.875376	398.077860	774.866307	-410.799708	432.098474	779.561974	-393.840690	386.804682	685.099666	-405.628614	382.446297	592.513631	-388.122315	379.803346	575.098294	-291.562973	228.669680	259.504030	-409.203896	251.119138	260.750129	-342.146433	156.388614	248.357688	-373.922304	297.172410	144.535123	-431.250218	332.382800	504.543597	-415.456604	321.898420	418.784603	-410.514305	268.721808	347.872210	-411.748804	346.925319	410.097374	-380.370343	387.437082	128.188414	-360.259845	-64.982777	852.895618	-239.275582	20.673618	84.688068	-441.909331	21.071497	84.049567	-43.852329	
1002	5.0100	698.568219	1288.779101	-28.863499	724.242906	1278.575638	-413.591746	725.813762	1372.104257	-221.898375	727.276628	1238.129089	-219.339051	542.370627	1082.743520	40.279992	690.480520	909.305734	-38.016475	545.703415	1096.291502	-534.650446	678.091222	903.476943	-458.600305	265.773252	1162.578526	-291.619799	430.685132	1108.308704	-395.462293	376.785647	1167.789415	-113.043734	446.461655	1051.583487	-351.859314	410.353322	1104.386192	-116.836371	287.093734	1198.766040	-230.023133	312.533853	1183.101258	-339.389014	334.793246	1043.484247	-58.826838	356.239911	981.791382	-432.448401	449.449648	953.925971	-59.204414	530.360314	919.834696	-64.654463	578.611799	846.909484	-65.208868	549.328136	940.648554	-88.535085	625.698773	754.703987	-95.160538	606.802792	742.214150	-196.008249	528.328576	721.875408	-69.585387	460.333569	664.725107	-84.665982	374.038059	649.582883	-83.673139	474.071589	643.090852	-114.230260	284.274968	602.447466	-85.305227	290.884548	612.132158	-162.522663	197.080383	626.147842	-122.880269	400.056109	456.027488	-129.380320	326.690814	493.732513	-63.403362	364.576643	853.182966	-424.470384	396.395137	775.004274	-411.585123	430.287799	779.334077	-394.327375	384.002240	685.391035	-406.525776	378.755060	592.936230	-388.797275	375.602163	575.585184	-291.807901	221.967975	261.100321	-409.197552	244.858423	261.971913	-342.636400	149.824669	251.516218	-373.623403	288.371915	144.824848	-431.093828	328.207241	505.429879	-415.935293	316.883384	419.713325	-410.805268	263.079690	349.238937	-412.002139	341.875649	410.925255	-380.762458	378.062520	126.376025	-360.153373	-64.992533	852.932895	-239.184260	20.646747	84.636926	-441.978271	21.086862	84.051331	-43.843298	
1003	5.0150	697.392032	1289.273868	-25.752550	725.716217	1278.129636	-410.241091	726.202663	1371.827512	-218.830365	726.702603	1237.813808	-215.934471	541.929590	1082.067840	42.006358	690.547601	909.569359	-37.438783	546.625109	1097.073446	-532.883413	678.332527	903.383725	-458.784022	266.530981	1163.738853	-292.901662	433.078152	1108.668897	-394.522199	375.927271	1169.231367	-113.273606	447.478722	1052.126261	-351.019383	409.217265	1105.453933	-115.946716	287.621781	1200.112739	-231.503027	313.714128	1184.047588	-340.352364	334.029461	1045.591652	-59.412695	357.073450	982.574068	-432.405731	448.925530	956.238668	-59.979896	530.329821	923.536529	-64.589150	579.747536	851.460432	-65.122718	548.746827	944.775580	-87.558379	629.138797	760.205984	-95.030977	611.025345	747.481019	-195.795231	532.236171	725.579745	-69.817808	465.552876	667.240402	-84.574332	379.552713	650.475685	-83.668128	479.610811	645.834631	-113.891713	289.747327	601.304227	-85.893119	296.633942	611.387691	-162.930817	202.831131	623.059230	-122.646187	409.967388	458.041024	-129.423711	335.502675	493.869195	-63.389266	363.888175	853.907048	-425.308710	394.722811	775.148140	-412.662392	428.790877	779.384505	-395.058887	381.654083	686.039074	-407.307042	375.608724	593.360655	-389.582787	372.195984	576.176791	-292.009697	215.403176	263.041492	-409.108488	237.752008	263.436547	-342.493847	143.097306	254.923371	-373.079122	279.256387	145.620458	-430.889813	324.421604	506.372213	-416.290973	312.032081	420.877761	-410.902830	257.371329	351.041226	-411.987818	336.923829	411.716054	-380.821769	368.660603	125.067550	-360.047902	-65.005919	852.983477	-239.108787	20.668095	84.666700	-441.976035	21.085021	84.056625	-43.832159	
1004	5.0200	696.356441	1289.647663	-22.769223	727.196503	1277.476775	-406.962612	726.668223	1371.264180	-215.784930	726.875483	1237.329601	-212.728295	541.651703	1081.348436	43.647340	690.590536	909.698176	-37.069563	547.478212	1097.829847	-531.156080	679.984248	904.523767	-460.105384	267.286664	1164.990048	-293.882411	434.985815	1109.436373	-393.883838	375.199740	1170.536256	-113.591108	448.374263	1052.897816	-350.271891	408.173982	1106.724962	-115.140163	287.892332	1201.438283	-232.479004	314.609661	1185.227882	-340.270446	333.742734	1047.474336	-60.667238	357.605452	983.489836	-432.286418	448.444692	958.975433	-60.615541	530.297257	927.251848	-64.588552	580.770406	855.785451	-65.028229	549.807814	948.836996	-87.292875	632.263976	765.617480	-94.823475	614.796051	752.556735	-195.903522	536.333918	729.248617	-69.318749	470.357640	669.502657	-84.377142	384.725914	651.122010	-83.458367	484.910677	648.180156	-113.697334	295.853333	599.495817	-86.037505	302.260692	609.861347	-163.198777	208.756460	619.508175	-122.792542	419.789243	459.759338	-129.455945	344.386659	493.523949	-63.332540	363.366136	854.741335	-426.159942	393.593521	775.596076	-413.693847	427.628413	779.618492	-395.924740	379.635516	686.692735	-408.296158	372.947659	594.020001	-390.271776	369.602757	576.969662	-292.224382	208.461477	265.615899	-408.830338	231.221520	265.508755	-342.020485	136.243144	258.854619	-372.542963	270.151737	146.996201	-430.667602	321.077423	507.287134	-416.394912	307.440027	422.082283	-410.877494	251.636051	353.159103	-411.947754	332.126188	412.574178	-380.749563	359.126206	124.539723	-360.080263	-65.019944	853.024126	-238.993929	20.642935	84.731856	-441.967216	21.073250	84.077772	-43.843481	
1005	5.0250	695.488122	1289.915171	-19.930865	728.736771	1276.567091	-403.663862	727.105351	1370.522219	-212.903485	727.091939	1236.537847	-209.711568	541.346195	1080.727808	45.300638	690.585520	909.787884	-36.769714	548.218538	1098.478772	-529.525707	680.226632	904.418861	-459.961500	267.898329	1166.449126	-294.589623	436.744141	1110.282203	-393.278404	374.612373	1172.035386	-113.786394	449.134447	1053.919164	-349.690229	407.201156	1107.645186	-114.403183	288.231496	1202.909070	-233.137099	315.479453	1186.455796	-340.728526	333.406810	1049.684899	-61.189665	357.942152	984.685754	-431.842317	448.056141	961.816679	-61.023882	530.417211	930.625038	-65.399456	581.202995	859.815479	-63.902537	549.683679	952.847580	-86.604549	635.381809	769.950029	-94.847601	618.262399	757.217137	-195.681812	539.559446	732.010393	-69.295075	475.109710	670.954999	-84.284247	389.897117	650.785916	-83.472026	490.185080	649.788577	-113.561176	301.748138	597.083187	-86.201009	307.810755	607.576254	-163.364534	214.124577	614.873195	-122.679042	429.386683	460.836572	-129.401480	353.182715	492.508767	-63.302337	362.934740	855.618087	-427.041264	392.626602	776.233330	-414.731475	426.749558	780.081491	-396.969200	378.065443	687.465955	-409.244382	370.918940	594.398967	-390.946592	368.068785	577.684473	-292.529455	201.433618	268.604295	-408.636823	224.430766	268.090046	-341.447207	129.277909	262.943809	-372.017102	261.131401	148.923518	-430.483630	318.191814	508.264682	-416.527581	303.026349	423.279085	-410.785614	246.078587	355.389523	-411.852374	327.497350	413.438147	-380.576269	349.706144	124.704882	-360.055067	-64.991835	853.065066	-238.847126	20.653741	84.788904	-441.952505	21.073754	84.091985	-43.832938	
